<svg xmlns="http://www.w3.org/2000/svg" xmlns:xlink="http://www.w3.org/1999/xlink" width="1920" zoomAndPan="magnify" viewBox="0 0 1440 809.999993" height="1080" preserveAspectRatio="xMidYMid meet" version="1.0"><defs><clipPath id="id1"><path d="M 337 0 L 1145 0 L 1145 255 L 337 255 Z M 337 0 " clip-rule="nonzero"/></clipPath><clipPath id="id2"><path d="M 329.941406 -137.417969 L 1144.511719 -68.261719 L 1110.375 333.792969 L 295.808594 264.636719 Z M 329.941406 -137.417969 " clip-rule="nonzero"/></clipPath><clipPath id="id3"><path d="M 329.941406 -137.417969 L 1144.511719 -68.261719 L 1110.375 333.792969 L 295.808594 264.636719 Z M 329.941406 -137.417969 " clip-rule="nonzero"/></clipPath></defs><rect x="-144" width="1728" fill="#ffffff" y="-80.999999" height="971.999992" fill-opacity="1"/><rect x="-144" width="1728" fill="#bf7343" y="-80.999999" height="971.999992" fill-opacity="1"/><rect x="-144" width="1728" fill="#ffffff" y="-80.999999" height="971.999992" fill-opacity="1"/><rect x="-144" width="1728" fill="#bf7343" y="-80.999999" height="971.999992" fill-opacity="1"/><path fill="#cb997e" d="M 100.511719 683.539062 C 63.1875 730.660156 49.683594 811.621094 100.511719 864.359375 C 151.339844 917.09375 235.699219 896.378906 295.253906 905.785156 C 354.804688 915.195312 428.242188 915.195312 443.261719 832.335938 C 458.359375 749.476562 422.550781 728.761719 320.820312 670.335938 C 219.085938 611.910156 172.128906 593.09375 100.511719 683.539062 Z M 100.511719 683.539062 " fill-opacity="1" fill-rule="nonzero"/><g clip-path="url(#id1)"><g clip-path="url(#id2)"><g clip-path="url(#id3)"><path fill="#ddbea9" d="M 339.464844 -75.875 L 1144.496094 -68.09375 C 1144.496094 -68.09375 1118.210938 241.535156 657.976562 254.308594 C 295.820312 264.464844 339.464844 -75.875 339.464844 -75.875 Z M 339.464844 -75.875 " fill-opacity="1" fill-rule="nonzero"/></g></g></g><path fill="#cb997e" d="M 1148.671875 745.351562 C 1157.398438 745.246094 1166.128906 745.882812 1174.75 747.265625 C 1188.054688 749.289062 1201.574219 749.289062 1214.878906 747.375 C 1227.117188 745.457031 1238.722656 741.519531 1250.109375 736.835938 C 1258.414062 733.429688 1263.84375 727.148438 1267.460938 719.375 C 1272.039062 709.476562 1276.1875 699.46875 1280.234375 689.355469 C 1283.960938 680.203125 1286.832031 670.726562 1291.835938 662.210938 C 1298.648438 650.183594 1308.441406 640.070312 1320.257812 632.828125 C 1328.984375 627.613281 1337.5 622.183594 1346.230469 616.863281 C 1352.507812 613.03125 1359.535156 610.902344 1366.667969 609.410156 C 1384.121094 605.789062 1401.367188 605.789062 1418.714844 610.6875 C 1439.152344 616.4375 1459.058594 623.886719 1478.324219 633.042969 C 1492.589844 639.855469 1504.617188 649.863281 1515.792969 660.933594 C 1521.964844 666.894531 1527.394531 673.601562 1531.867188 680.945312 C 1536.867188 689.25 1539.957031 698.617188 1540.59375 708.304688 C 1541.339844 718.738281 1541.660156 729.0625 1538.570312 739.175781 C 1532.609375 758.871094 1521.433594 774.730469 1502.808594 784.101562 C 1495.78125 787.71875 1488.011719 790.167969 1480.347656 792.402344 C 1463.421875 797.40625 1447.457031 805.070312 1432.980469 815.183594 C 1422.015625 822.742188 1412.96875 832.429688 1404.132812 842.4375 C 1394.554688 853.402344 1385.292969 864.578125 1375.179688 875.011719 C 1360.597656 890.019531 1344.632812 903.539062 1326.21875 913.652344 C 1315.679688 919.402344 1304.824219 924.191406 1293.007812 926.214844 C 1272.464844 929.726562 1253.410156 926.214844 1236.804688 913.015625 C 1227.4375 905.667969 1218.496094 897.898438 1209.34375 890.445312 C 1201.148438 883.632812 1192.949219 876.925781 1183.265625 872.242188 C 1172.40625 866.707031 1160.273438 864.152344 1148.136719 864.683594 C 1138.984375 865.21875 1129.828125 866.175781 1120.78125 866.921875 C 1110.671875 867.664062 1100.558594 867.664062 1090.550781 865.429688 C 1072.777344 861.597656 1062.132812 850.3125 1057.128906 833.28125 C 1052.660156 817.632812 1054.894531 802.410156 1060.75 787.613281 C 1063.621094 780.375 1067.667969 773.667969 1072.671875 767.8125 C 1079.589844 759.828125 1088.53125 755.25 1098.429688 752.058594 C 1109.394531 748.542969 1120.675781 747.160156 1132.066406 746.414062 Z M 1148.671875 745.351562 " fill-opacity="1" fill-rule="nonzero"/><path fill="#ddbea9" d="M -69.144531 667.539062 C 25.429688 626.972656 -60.96875 579.082031 5.285156 553.5 C 71.542969 527.917969 120.464844 590.726562 108.824219 672.183594 C 101.171875 725.574219 220.53125 821.164062 123.929688 856.039062 C 27.328125 890.910156 19.742188 804.9375 -44.746094 793.226562 C -121.46875 779.226562 -118 688.476562 -69.144531 667.539062 Z M -69.144531 667.539062 " fill-opacity="1" fill-rule="nonzero"/></svg>